<svg width="29" height="440" viewBox="0 0 29 440" fill="none" xmlns="http://www.w3.org/2000/svg">
<path d="M15.9659 90.5C15.9659 91.3284 15.2924 92 14.4616 92C13.6308 92 12.9573 91.3284 12.9573 90.5C12.9573 89.6716 13.6308 89 14.4616 89C15.2924 89 15.9659 89.6716 15.9659 90.5Z" fill="#321E3C"/>
<path d="M15.9659 342.5C15.9659 343.328 15.2924 344 14.4616 344C13.6308 344 12.9573 343.328 12.9573 342.5C12.9573 341.672 13.6308 341 14.4616 341C15.2924 341 15.9659 341.672 15.9659 342.5Z" fill="#321E3C"/>
<path d="M15.9659 258.5C15.9659 259.328 15.2924 260 14.4616 260C13.6308 260 12.9573 259.328 12.9573 258.5C12.9573 257.672 13.6308 257 14.4616 257C15.2924 257 15.9659 257.672 15.9659 258.5Z" fill="#321E3C"/>
<path d="M15.9659 174.5C15.9659 175.328 15.2924 176 14.4616 176C13.6308 176 12.9573 175.328 12.9573 174.5C12.9573 173.672 13.6308 173 14.4616 173C15.2924 173 15.9659 173.672 15.9659 174.5Z" fill="#321E3C"/>
<path d="M15.9659 6.5C15.9659 7.32843 15.2924 8 14.4616 8C13.6308 8 12.9573 7.32843 12.9573 6.5C12.9573 5.67157 13.6308 5 14.4616 5C15.2924 5 15.9659 5.67157 15.9659 6.5Z" fill="#321E3C"/>
<path d="M14.4616 96C17.5078 96 19.9772 93.5376 19.9772 90.5C19.9772 87.4624 17.5078 85 14.4616 85M14.4616 96C11.4154 96 8.94594 93.5376 8.94594 90.5C8.94594 87.4624 11.4154 85 14.4616 85M14.4616 96V169M14.4616 85V12M14.4616 348C17.5078 348 19.9772 345.538 19.9772 342.5C19.9772 339.462 17.5078 337 14.4616 337M14.4616 348C11.4154 348 8.94594 345.538 8.94594 342.5C8.94594 339.462 11.4154 337 14.4616 337M14.4616 348V430M14.4616 337V264M14.4616 264C17.5078 264 19.9772 261.538 19.9772 258.5C19.9772 255.462 17.5078 253 14.4616 253M14.4616 264C11.4154 264 8.94594 261.538 8.94594 258.5C8.94594 255.462 11.4154 253 14.4616 253M14.4616 253V180M14.4616 180C17.5078 180 19.9772 177.538 19.9772 174.5C19.9772 171.462 17.5078 169 14.4616 169M14.4616 180C11.4154 180 8.94594 177.538 8.94594 174.5C8.94594 171.462 11.4154 169 14.4616 169M14.4616 12C17.5078 12 19.9772 9.53757 19.9772 6.5C19.9772 3.46243 17.5078 1 14.4616 1C11.4154 1 8.94594 3.46243 8.94594 6.5C8.94594 9.53757 11.4154 12 14.4616 12ZM22.4844 416H27.4986L14.4616 438.5L1.4246 416H6.43883M14.4616 430L1 406.75H28L14.4616 430ZM15.9659 90.5C15.9659 91.3284 15.2924 92 14.4616 92C13.6308 92 12.9573 91.3284 12.9573 90.5C12.9573 89.6716 13.6308 89 14.4616 89C15.2924 89 15.9659 89.6716 15.9659 90.5ZM15.9659 342.5C15.9659 343.328 15.2924 344 14.4616 344C13.6308 344 12.9573 343.328 12.9573 342.5C12.9573 341.672 13.6308 341 14.4616 341C15.2924 341 15.9659 341.672 15.9659 342.5ZM15.9659 258.5C15.9659 259.328 15.2924 260 14.4616 260C13.6308 260 12.9573 259.328 12.9573 258.5C12.9573 257.672 13.6308 257 14.4616 257C15.2924 257 15.9659 257.672 15.9659 258.5ZM15.9659 174.5C15.9659 175.328 15.2924 176 14.4616 176C13.6308 176 12.9573 175.328 12.9573 174.5C12.9573 173.672 13.6308 173 14.4616 173C15.2924 173 15.9659 173.672 15.9659 174.5ZM15.9659 6.5C15.9659 7.32843 15.2924 8 14.4616 8C13.6308 8 12.9573 7.32843 12.9573 6.5C12.9573 5.67157 13.6308 5 14.4616 5C15.2924 5 15.9659 5.67157 15.9659 6.5Z" stroke="#321E3C"/>
</svg>
