<?xml version="1.0" standalone="no"?>
<!DOCTYPE svg PUBLIC "-//W3C//DTD SVG 20010904//EN"
 "http://www.w3.org/TR/2001/REC-SVG-20010904/DTD/svg10.dtd">
<svg version="1.0" xmlns="http://www.w3.org/2000/svg"
 width="2654.000000pt" height="2654.000000pt" viewBox="0 0 2654.000000 2654.000000"
 preserveAspectRatio="xMidYMid meet">
<metadata>
Created by potrace 1.14, written by Peter Selinger 2001-2017
</metadata>
<g transform="translate(0.000000,2654.000000) scale(0.100000,-0.100000)"
fill="#000000" stroke="none">
<path d="M16342 20253 c-13 -16 -27 -34 -31 -42 -6 -9 -38 -14 -106 -16 -65
-2 -101 -7 -110 -16 -13 -14 -28 -76 -27 -111 1 -10 -3 -18 -9 -18 -5 0 -8 -3
-8 -7 3 -21 -2 -43 -14 -55 -8 -7 -19 -24 -26 -37 -7 -12 -15 -21 -17 -18 -3
3 -16 -5 -29 -17 -14 -13 -30 -23 -37 -24 -33 -3 -135 -30 -156 -41 -23 -12
-46 -15 -182 -26 -36 -3 -81 -7 -100 -9 -88 -9 -168 -17 -200 -21 -19 -3 -55
-7 -80 -9 -68 -8 -184 -22 -260 -33 -25 -3 -57 -6 -72 -7 -16 0 -28 -3 -28 -6
0 -3 -12 -5 -27 -6 -28 -1 -103 -10 -158 -20 -16 -3 -41 -7 -55 -9 -14 -2 -36
-6 -50 -9 -14 -2 -45 -7 -70 -10 -25 -4 -58 -9 -75 -12 -16 -3 -39 -7 -50 -9
-11 -2 -41 -7 -67 -13 -26 -5 -49 -7 -52 -5 -3 3 -11 1 -18 -3 -7 -5 -22 -9
-33 -11 -34 -3 -86 -12 -104 -17 -9 -3 -36 -8 -61 -11 -24 -4 -52 -11 -61 -15
-9 -5 -18 -7 -21 -5 -2 2 -20 0 -39 -5 -19 -5 -45 -11 -59 -14 -14 -3 -44 -10
-68 -16 -23 -6 -55 -12 -70 -14 -15 -2 -34 -6 -42 -9 -14 -6 -126 -35 -160
-42 -8 -2 -15 -4 -15 -6 0 -1 -9 -3 -20 -4 -11 -2 -39 -10 -63 -19 -23 -8 -43
-15 -45 -15 -4 0 -30 -8 -112 -37 -44 -15 -81 -27 -82 -26 -2 1 -19 -7 -38
-18 -20 -11 -42 -20 -50 -20 -8 0 -15 -4 -15 -9 0 -5 -12 -14 -27 -20 -35 -13
-87 -44 -91 -53 -2 -5 -8 -8 -14 -8 -24 0 -119 -113 -157 -188 -23 -46 -90
-224 -97 -259 -2 -12 -9 -35 -16 -50 -6 -16 -12 -32 -13 -38 -1 -5 -3 -13 -5
-17 -1 -5 -4 -12 -5 -18 -1 -5 -3 -11 -5 -12 -1 -2 -3 -10 -5 -18 -2 -8 -19
-76 -38 -150 -47 -180 -50 -201 -50 -300 0 -95 4 -130 14 -130 4 0 10 -13 14
-29 3 -16 13 -35 21 -41 7 -7 11 -16 8 -21 -3 -5 -1 -9 5 -9 14 0 51 -64 51
-88 0 -27 -13 -34 -69 -37 -45 -2 -76 10 -113 45 -22 20 -34 19 -113 -5 -33
-10 -62 -19 -65 -20 -18 -4 -58 -18 -75 -25 -36 -15 -158 -51 -189 -56 -193
-27 -366 -24 -366 5 0 9 -9 11 -75 16 -27 2 -68 -1 -90 -7 -22 -6 -47 -12 -55
-13 -8 -2 -15 -4 -15 -5 0 -1 -105 -31 -156 -44 -9 -2 -38 -16 -65 -30 -48
-25 -97 -34 -204 -40 -41 -2 -58 3 -88 23 -28 20 -48 25 -82 24 -40 -2 -85 -9
-85 -13 0 -1 -7 -3 -15 -5 -8 -1 -37 -9 -65 -17 -63 -19 -125 -16 -137 6 -5 9
-27 25 -49 36 -21 11 -39 24 -39 29 0 15 -61 72 -70 66 -11 -7 -50 15 -78 43
-14 14 -34 22 -55 22 -18 0 -43 7 -55 16 -25 17 -98 27 -202 27 -86 1 -135 -7
-164 -26 -13 -9 -43 -17 -66 -19 -29 -1 -50 -10 -70 -29 -16 -16 -46 -37 -67
-48 -21 -11 -51 -36 -66 -55 -15 -20 -34 -36 -42 -36 -8 0 -20 -9 -28 -20 -11
-16 -94 -51 -116 -48 -3 0 -8 -1 -11 -2 -6 -2 -25 -6 -65 -13 -16 -3 -45 -10
-64 -16 -18 -6 -36 -10 -40 -9 -3 0 -9 -1 -13 -2 -5 -1 -11 -3 -15 -4 -52 -11
-153 -41 -153 -46 0 -4 -6 -7 -13 -7 -39 0 -237 -161 -237 -193 0 -6 -4 -8
-10 -5 -5 3 -10 1 -10 -5 0 -5 -13 -23 -28 -40 -16 -16 -38 -42 -50 -57 -12
-15 -39 -48 -62 -71 -22 -24 -40 -48 -40 -53 0 -6 -4 -7 -10 -4 -5 3 -10 2
-10 -3 0 -14 -105 -122 -119 -122 -6 0 -11 -4 -11 -9 0 -18 -59 -23 -290 -27
-440 -7 -615 -21 -758 -61 -73 -20 -270 -19 -372 2 -14 3 -41 7 -60 10 -19 2
-60 7 -90 10 -116 14 -442 20 -555 10 -132 -11 -215 -21 -266 -29 -20 -4 -51
-8 -70 -10 -19 -2 -54 -9 -79 -16 -25 -7 -58 -13 -75 -15 -16 -1 -37 -5 -45
-8 -28 -9 -105 -30 -125 -33 -22 -4 -82 -23 -190 -61 -38 -13 -77 -26 -85 -28
-18 -4 -138 -55 -238 -101 -41 -19 -77 -34 -82 -34 -4 0 -13 -7 -20 -15 -7 -8
-16 -12 -21 -9 -5 3 -9 0 -9 -5 0 -6 -5 -11 -11 -11 -6 0 -49 -22 -96 -50 -47
-27 -86 -50 -88 -50 -4 0 -165 -105 -180 -117 -5 -4 -37 -26 -69 -48 -33 -22
-67 -47 -76 -55 -9 -8 -28 -24 -44 -35 -15 -11 -36 -27 -46 -35 -9 -8 -38 -32
-64 -54 -81 -68 -137 -119 -240 -222 -118 -118 -156 -161 -167 -189 -14 -37
-22 -60 -23 -66 -2 -12 -42 -63 -90 -113 -64 -67 -146 -160 -191 -216 -19 -25
-43 -55 -53 -66 -9 -12 -26 -34 -37 -49 -11 -16 -26 -34 -32 -41 -7 -7 -13
-17 -13 -22 0 -6 -3 -12 -7 -14 -11 -4 -65 -78 -58 -78 3 0 1 -6 -5 -12 -26
-32 -80 -107 -80 -113 0 -4 -13 -25 -28 -48 -16 -23 -31 -50 -35 -59 -4 -10
-11 -18 -17 -18 -6 0 -9 -4 -6 -9 3 -4 -3 -19 -14 -31 -11 -12 -17 -27 -14
-31 3 -5 1 -9 -4 -9 -11 0 -237 -450 -274 -545 -12 -33 -27 -63 -31 -66 -5 -3
-8 -9 -7 -13 1 -4 -4 -21 -11 -39 -6 -18 -13 -34 -14 -37 -1 -3 -7 -18 -13
-33 -7 -16 -12 -34 -12 -41 0 -6 -4 -16 -10 -22 -5 -5 -11 -18 -13 -29 -4 -21
-13 -45 -27 -80 -10 -22 -70 -211 -75 -235 -2 -8 -4 -16 -5 -17 -2 -2 -4 -7
-5 -13 -1 -5 -3 -11 -5 -12 -1 -2 -3 -10 -5 -18 -1 -8 -10 -42 -19 -75 -9 -33
-19 -68 -21 -78 -2 -9 -11 -45 -20 -80 -15 -59 -52 -218 -59 -262 -2 -11 -9
-45 -15 -75 -7 -30 -14 -70 -16 -89 -2 -18 -7 -41 -9 -50 -3 -9 -8 -36 -10
-61 -3 -25 -8 -56 -11 -70 -3 -14 -7 -45 -10 -70 -3 -25 -7 -61 -10 -80 -21
-153 -35 -319 -50 -575 -8 -124 -7 -578 0 -695 13 -202 22 -308 29 -360 3 -19
8 -57 11 -85 2 -27 7 -61 9 -75 3 -14 7 -45 10 -70 4 -25 9 -58 11 -75 3 -16
10 -56 16 -88 6 -32 12 -70 14 -85 4 -27 19 -106 30 -152 3 -14 8 -36 11 -50
8 -41 56 -244 62 -260 7 -20 6 -18 22 -83 7 -32 17 -60 22 -63 4 -3 8 -18 8
-33 0 -15 5 -32 12 -39 7 -7 9 -12 5 -12 -7 0 113 -362 139 -417 7 -17 14 -34
14 -38 0 -4 7 -23 16 -43 16 -37 27 -63 43 -104 4 -13 17 -43 29 -68 11 -25
26 -62 33 -82 7 -21 17 -38 22 -38 4 0 6 -4 3 -9 -3 -4 1 -17 9 -27 8 -10 15
-27 15 -36 0 -10 5 -18 10 -18 6 0 10 -5 10 -12 0 -16 62 -142 72 -146 4 -2 8
-9 8 -16 0 -11 37 -87 81 -167 7 -13 13 -28 14 -32 0 -4 7 -12 15 -17 8 -5 11
-10 6 -10 -5 0 -4 -6 2 -12 6 -7 23 -38 39 -68 16 -30 41 -74 56 -97 15 -24
27 -47 27 -53 0 -5 4 -10 9 -10 5 0 11 -8 15 -17 3 -10 15 -31 26 -48 10 -16
27 -43 36 -59 9 -16 32 -51 50 -78 19 -26 34 -52 34 -57 0 -5 3 -11 8 -13 4
-1 25 -30 47 -63 22 -33 42 -62 45 -65 3 -3 21 -27 40 -55 19 -27 42 -59 52
-69 10 -11 18 -23 18 -28 0 -4 8 -16 18 -27 9 -10 26 -31 37 -45 11 -15 26
-33 32 -41 7 -7 13 -19 13 -25 0 -6 5 -8 10 -5 6 3 10 1 10 -4 0 -10 26 -44
63 -83 9 -10 17 -20 17 -23 0 -2 10 -15 23 -28 12 -13 51 -56 87 -97 86 -97
372 -383 439 -440 30 -25 66 -56 81 -70 16 -14 42 -36 60 -50 17 -14 41 -33
53 -44 12 -10 38 -30 57 -45 19 -14 38 -30 42 -36 4 -5 8 -7 8 -3 0 5 8 0 18
-10 31 -29 62 -52 62 -46 0 2 12 -7 28 -21 15 -14 39 -31 54 -37 15 -7 24 -16
22 -20 -3 -4 4 -8 15 -8 12 0 21 -4 21 -9 0 -6 11 -16 24 -23 14 -7 51 -29 82
-48 100 -61 206 -118 319 -173 105 -51 134 -65 215 -100 19 -8 51 -21 70 -30
19 -8 51 -20 70 -27 36 -12 63 -23 103 -40 39 -16 278 -81 347 -93 14 -3 36
-8 50 -11 117 -26 310 -45 530 -51 91 -2 167 -5 170 -6 3 -1 10 0 15 1 13 2
137 2 150 0 6 -1 15 -1 20 0 6 1 73 3 150 6 77 2 151 6 165 8 13 3 42 8 65 11
69 10 129 22 204 39 44 10 96 29 109 39 6 5 12 7 12 3 0 -4 14 0 30 9 16 9 30
13 30 9 0 -4 6 -2 13 4 7 6 49 14 93 18 43 3 95 8 114 10 19 2 57 6 84 8 27 3
63 7 80 10 17 3 56 8 86 11 30 3 78 10 105 15 28 5 68 12 90 15 22 3 54 8 70
12 17 3 39 7 50 8 11 2 20 4 20 5 0 1 14 4 30 6 138 22 594 155 603 176 2 4
10 8 18 8 8 0 38 12 67 27 61 31 60 31 157 37 41 3 75 6 75 7 0 1 20 3 45 5
51 4 90 8 170 19 30 4 64 9 75 10 11 1 20 4 20 5 0 1 16 3 35 5 36 3 46 4 190
32 47 8 94 17 105 18 11 2 20 4 20 5 0 1 8 3 17 5 14 3 204 47 218 50 3 1 17
5 31 9 14 4 32 8 40 10 8 1 48 13 89 25 41 13 80 24 85 26 12 2 3 -1 170 59
72 25 136 46 143 46 6 0 12 5 12 10 0 6 6 10 14 10 14 0 205 86 310 140 33 16
68 30 78 30 10 0 18 4 18 10 0 5 3 9 8 8 13 -4 102 26 102 34 0 4 3 7 8 6 4
-1 45 11 92 27 47 16 90 30 95 31 6 1 35 11 65 22 30 10 60 20 65 22 6 1 15 4
20 6 146 45 291 71 385 68 200 -6 442 -1 500 11 19 4 46 8 60 10 24 3 54 8
110 20 14 3 39 7 55 10 17 3 44 8 60 12 17 3 39 7 50 9 11 2 29 5 40 7 11 3
45 8 75 13 30 4 57 8 60 9 35 8 72 15 103 20 33 4 70 10 132 20 11 2 34 6 50
9 17 2 46 7 65 11 19 3 49 8 65 11 17 2 41 7 55 9 52 11 75 15 115 20 22 3 49
9 60 12 11 3 30 7 43 9 12 1 64 16 115 32 50 17 119 38 152 47 33 9 112 41
175 70 63 30 141 61 174 70 32 10 86 33 120 52 33 19 69 37 79 40 9 3 17 10
17 15 0 5 4 7 9 4 5 -3 12 1 15 10 3 8 10 12 16 9 5 -3 10 -2 10 2 0 5 30 24
66 42 64 33 68 33 152 27 48 -4 103 -9 122 -11 19 -3 55 -7 79 -10 24 -2 65
-7 90 -10 25 -4 66 -9 91 -11 25 -3 63 -7 85 -10 22 -3 60 -7 85 -9 25 -2 61
-6 80 -9 19 -3 64 -8 100 -11 62 -7 110 -12 175 -19 43 -6 133 -15 185 -21 25
-3 68 -7 95 -10 28 -3 70 -8 95 -10 25 -3 68 -8 95 -11 72 -9 122 -14 185 -19
30 -3 73 -7 95 -9 22 -3 65 -8 95 -11 30 -3 75 -9 100 -12 25 -3 63 -7 85 -8
22 -2 63 -6 90 -9 28 -3 73 -8 100 -11 28 -2 75 -7 105 -10 120 -12 147 -15
190 -19 25 -3 70 -8 100 -10 106 -10 195 -18 225 -22 17 -2 55 -6 85 -9 81 -7
157 -14 225 -21 33 -3 78 -7 100 -9 65 -5 177 -15 220 -20 22 -2 74 -6 115
-10 41 -3 98 -8 125 -10 28 -3 79 -7 115 -9 36 -3 92 -7 125 -10 33 -3 96 -8
140 -11 44 -3 114 -8 155 -10 41 -3 116 -8 165 -10 50 -3 151 -8 225 -12 275
-15 1041 -7 1138 12 16 3 79 10 177 20 22 2 65 7 95 10 30 4 66 8 80 10 31 4
117 15 150 20 123 19 161 25 200 30 51 7 79 11 130 20 19 4 47 8 62 10 15 2
51 8 80 14 49 10 77 15 153 27 36 6 63 11 91 18 12 2 37 7 55 10 35 6 49 9
134 26 28 6 60 12 73 15 13 2 31 6 40 9 9 3 34 7 56 11 21 3 42 7 46 10 3 2
20 7 36 9 16 3 40 8 54 12 14 3 34 7 45 9 11 3 38 9 60 15 22 6 47 12 55 14
92 23 248 84 270 106 8 8 84 57 92 59 21 4 170 181 153 181 -3 0 5 17 18 38
22 34 72 161 82 207 2 11 12 51 21 90 13 53 14 76 6 100 -25 70 35 247 122
360 46 59 72 85 85 85 6 0 10 4 9 8 -3 9 40 51 92 91 175 132 264 244 285 356
18 96 29 541 14 551 -5 3 -22 7 -37 10 -44 7 -102 36 -102 51 0 7 10 17 23 22
46 19 62 24 69 23 12 -3 68 59 69 76 0 9 2 26 5 37 2 11 6 135 9 275 12 507
15 639 20 885 2 138 7 360 10 495 3 135 8 353 10 485 3 132 8 359 11 505 3
146 5 272 5 280 -1 8 -1 25 -1 37 0 22 -10 28 -70 39 -71 12 -90 22 -90 44 0
16 10 23 50 36 3 0 19 5 37 9 41 9 46 24 49 160 2 61 5 175 8 255 3 80 8 226
11 324 3 98 7 182 7 185 1 3 -2 26 -6 51 -8 40 -22 71 -51 108 -11 15 -10 13
-84 79 -129 114 -251 252 -251 283 0 5 -3 10 -7 10 -8 0 -27 38 -60 115 -17
41 -18 45 -29 105 -4 19 -10 40 -14 45 -12 16 -20 64 -25 150 -7 112 -23 310
-31 385 -26 235 -27 248 -11 265 9 8 18 15 22 15 9 0 30 22 43 47 10 18 7 26
-18 57 -16 21 -30 36 -32 34 -5 -4 -53 32 -50 37 1 3 2 6 1 8 0 1 -2 13 -5 27
-4 28 -18 77 -46 168 -11 34 -21 68 -22 75 -2 7 -10 29 -20 49 -9 21 -16 41
-16 46 0 11 -119 245 -128 252 -4 3 -20 25 -37 50 -16 25 -37 54 -47 65 -49
53 -120 125 -124 125 -2 0 -12 8 -22 18 -33 31 -67 57 -117 92 -28 18 -52 36
-55 40 -3 3 -16 11 -30 18 -27 13 -62 34 -70 42 -3 3 -32 19 -65 35 l-60 31
-1 48 c-1 27 -8 52 -15 56 -19 12 -15 71 6 86 10 7 22 15 28 17 6 2 4 22 -5
54 l-15 52 29 36 c24 28 28 38 18 50 -20 24 -19 63 2 82 35 31 40 50 23 84
-10 18 -13 38 -9 47 4 10 7 20 6 24 -1 4 7 10 18 13 11 4 21 11 21 16 1 5 2
15 3 22 1 6 -4 21 -11 32 -18 27 -16 52 6 74 47 47 34 119 -30 164 -22 15 -43
27 -48 27 -5 0 -11 4 -13 8 -3 8 -307 164 -318 164 -3 0 -21 6 -40 15 -38 16
-46 20 -134 58 -32 14 -62 25 -67 25 -4 0 -20 5 -36 12 -15 6 -30 12 -33 13
-3 1 -12 5 -20 8 -52 22 -269 88 -330 101 -14 3 -45 10 -70 16 -25 5 -56 12
-70 15 -14 3 -38 7 -55 10 -16 2 -41 6 -55 9 -14 3 -45 7 -70 10 -25 4 -54 8
-65 10 -11 3 -41 5 -67 5 -37 1 -54 8 -86 34 -22 17 -55 43 -73 57 -18 14 -38
31 -45 38 -7 7 -16 12 -19 12 -6 -1 -48 28 -74 50 -10 8 -24 16 -32 18 -8 2
-34 16 -59 31 -42 25 -77 43 -140 69 -14 6 -52 16 -85 23 -57 12 -91 27 -81
36 2 3 -13 37 -34 77 -57 109 -63 120 -82 134 -10 7 -18 17 -18 23 0 25 -136
160 -226 225 -15 10 -38 29 -53 42 -14 13 -38 31 -53 40 -16 9 -28 20 -28 24
0 4 -7 8 -16 8 -8 0 -12 5 -9 10 3 6 1 10 -5 10 -6 0 -17 6 -25 13 -38 36
-175 132 -175 123 0 -3 -28 9 -62 28 -35 18 -83 39 -108 46 -58 18 -80 37 -80
71 0 51 -22 133 -53 194 -16 33 -32 62 -36 65 -3 3 -12 17 -20 33 -8 15 -18
27 -23 27 -4 0 -8 5 -8 11 0 20 -54 65 -100 83 -25 10 -46 17 -48 16 -9 -6
-61 13 -56 21 3 5 0 9 -5 9 -6 0 -11 6 -11 14 0 28 -55 43 -167 46 -224 6
-563 16 -823 26 -146 5 -270 8 -303 5 -14 -1 -17 -9 -15 -34 1 -18 -1 -38 -5
-44 -5 -8 -48 -11 -133 -9 -108 2 -129 5 -140 20 -7 10 -10 24 -8 31 9 23 -18
29 -146 32 -69 1 -226 5 -350 7 -124 3 -344 8 -490 11 l-265 6 -23 -28z"/>
</g>
</svg>
