<svg width="370" height="196" viewBox="0 0 370 196" fill="none" xmlns="http://www.w3.org/2000/svg">
<path d="M278 97.9086H0M265 89.9086V84.4086L287.5 97.9086L265 111.409V105.99M345 98.4086C345 138.725 312.317 171.409 272 171.409C231.683 171.409 199 138.725 199 98.4086C199 58.0918 231.683 25.4086 272 25.4086C312.317 25.4086 345 58.0918 345 98.4086ZM278.998 97.9086L255.748 111.332V84.4852L278.998 97.9086Z" stroke="#83418D"/>
<path d="M190.301 79.8474C190.467 79.4164 190.735 79.0503 191.106 78.749C191.479 78.436 191.906 78.2201 192.385 78.1014C192.867 77.9709 193.354 77.9582 193.847 78.0633C194.469 78.1958 194.999 78.4743 195.436 78.8988C195.861 79.3207 196.156 79.8681 196.319 80.5409C196.473 81.1995 196.463 81.9396 196.287 82.7611L195.312 87.3383L183.042 84.7233L183.98 80.3222C184.157 79.4889 184.449 78.8089 184.856 78.2821C185.251 77.7528 185.714 77.3914 186.246 77.1981C186.778 77.0047 187.338 76.9706 187.925 77.0956C188.652 77.2507 189.214 77.579 189.61 78.0806C189.997 78.5679 190.228 79.1569 190.301 79.8474ZM188.682 84.2506L189.256 81.5571C189.416 80.806 189.364 80.1875 189.099 79.7017C188.835 79.2159 188.391 78.9067 187.769 78.7741C187.147 78.6416 186.617 78.7431 186.177 79.0789C185.737 79.4146 185.435 79.9698 185.27 80.7444L184.703 83.4027L188.682 84.2506ZM194.937 82.6206C195.107 81.8225 195.052 81.1604 194.771 80.6344C194.491 80.1084 194.016 79.7741 193.347 79.6315C192.666 79.4865 192.082 79.6074 191.595 79.9943C191.096 80.3787 190.763 80.9641 190.595 81.7504L190.002 84.532L194.333 85.4549L194.937 82.6206Z" fill="#83418D"/>
<path d="M188.808 67.9863L192.697 69.5551L194.407 65.315L195.659 65.82L193.949 70.0601L197.956 71.676L199.868 66.9351L201.12 67.4401L198.595 73.7001L186.943 69.0004L189.468 62.7404L190.72 63.2454L188.808 67.9863Z" fill="#83418D"/>
<path d="M205.158 54.2015L202.24 58.831L204.063 61.1712L203.142 62.6331L195.007 52.1453L196.015 50.5463L208.977 53.3741L208.055 54.8361L205.158 54.2015ZM203.781 53.8873L197.212 52.4282L201.363 57.7249L203.781 53.8873Z" fill="#83418D"/>
<path d="M203.801 39.7413L209.575 45.1879C210.387 45.9537 211.175 46.3254 211.938 46.3031C212.71 46.2721 213.429 45.903 214.096 45.1959C214.754 44.4975 215.073 43.7667 215.05 43.0033C215.036 42.2312 214.623 41.4623 213.811 40.6966L208.037 35.25L209.161 34.0584L214.922 39.4927C215.682 40.209 216.179 40.967 216.415 41.7665C216.642 42.5578 216.635 43.3348 216.394 44.0973C216.161 44.8512 215.74 45.5511 215.131 46.197C214.522 46.843 213.843 47.3085 213.096 47.5935C212.357 47.8698 211.586 47.9178 210.783 47.7375C209.979 47.5403 209.198 47.0835 208.438 46.3672L202.677 40.9329L203.801 39.7413Z" fill="#83418D"/>
<path d="M220.771 24.5303L221.565 25.5996L218.819 27.6388L225.506 36.6412L224.191 37.6179L217.504 28.6156L214.744 30.6656L213.95 29.5963L220.771 24.5303Z" fill="#83418D"/>
<path d="M234.655 16.6066L234.533 25.4218L236.668 29.6468L235.206 30.3857L233.071 26.1607L225.884 21.0401L227.507 20.22L233.136 24.4941L233.033 17.4267L234.655 16.6066Z" fill="#83418D"/>
<path d="M266.155 8.44768L264.36 21.386L262.543 21.6499L258.206 12.0759L256.665 22.5037L254.868 22.7828L249.589 10.8537L251.317 10.6028L255.553 20.7371L257.017 9.77489L258.834 9.511L263.208 19.589L264.409 8.70122L266.155 8.44768Z" fill="#83418D"/>
<path d="M275.013 8.59585L274.499 21.1313L272.863 21.0643L273.376 8.52879L275.013 8.59585Z" fill="#83418D"/>
<path d="M290.22 10.3783L289.992 11.6908L286.623 11.1074L284.71 22.1571L283.096 21.8777L285.009 10.828L281.621 10.2416L281.848 8.92913L290.22 10.3783Z" fill="#83418D"/>
<path d="M306.58 15.4086L302.202 27.1658L300.667 26.5942L302.652 21.2638L296.664 19.0338L294.679 24.3642L293.144 23.7925L297.522 12.0353L299.057 12.607L297.135 17.7687L303.123 19.9987L305.045 14.837L306.58 15.4086Z" fill="#83418D"/>
<path d="M312.704 32.8148C311.724 32.1868 310.975 31.3865 310.458 30.4139C309.948 29.4313 309.717 28.3786 309.767 27.2559C309.833 26.1296 310.196 25.0511 310.856 24.0205C311.517 22.9899 312.342 22.2143 313.331 21.6937C314.336 21.1694 315.389 20.9389 316.489 21.0022C317.595 21.0553 318.638 21.3958 319.618 22.0238C320.608 22.6582 321.359 23.4668 321.869 24.4495C322.386 25.4221 322.615 26.4665 322.555 27.5827C322.496 28.6989 322.132 29.7774 321.466 30.8181C320.799 31.8588 319.971 32.6394 318.982 33.1601C317.992 33.6807 316.945 33.9144 315.839 33.8613C314.739 33.7981 313.694 33.4492 312.704 32.8148ZM313.471 31.6175C314.209 32.0901 314.981 32.3423 315.787 32.3743C316.603 32.4127 317.382 32.2205 318.123 31.7976C318.874 31.3811 319.519 30.7536 320.056 29.915C320.6 29.0662 320.901 28.2186 320.959 27.372C321.033 26.5219 320.887 25.7373 320.521 25.0182C320.155 24.2992 319.599 23.7002 318.851 23.2211C318.103 22.742 317.326 22.4865 316.52 22.4546C315.714 22.4226 314.935 22.6149 314.184 23.0313C313.449 23.4441 312.81 24.0749 312.266 24.9236C311.729 25.7622 311.423 26.6066 311.348 27.4568C311.284 28.3135 311.435 29.1013 311.801 29.8203C312.177 30.5458 312.734 31.1449 313.471 31.6175Z" fill="#83418D"/>
<path d="M332.135 31.5209L326.562 37.1736C325.779 37.9684 325.39 38.7475 325.395 39.5112C325.409 40.2833 325.762 41.0105 326.455 41.6929C327.138 42.3669 327.862 42.7012 328.625 42.6958C329.398 42.6988 330.175 42.3029 330.959 41.5082L336.532 35.8554L337.698 37.0054L332.138 42.6453C331.405 43.3888 330.636 43.8694 329.832 44.0873C329.036 44.2966 328.259 44.2724 327.502 44.0148C326.753 43.7655 326.063 43.3292 325.431 42.7057C324.798 42.0823 324.348 41.3939 324.08 40.6406C323.82 39.8958 323.789 39.1238 323.987 38.3248C324.202 37.5256 324.676 36.7543 325.409 36.0108L330.969 30.3709L332.135 31.5209Z" fill="#83418D"/>
<path d="M346.957 48.8002L345.871 49.5709L343.892 46.7815L334.746 53.2701L333.798 51.9341L342.944 45.4456L340.955 42.6415L342.041 41.8708L346.957 48.8002Z" fill="#83418D"/>
<path d="M347.994 73.0675L346.149 67.916L343.182 67.9079L342.6 66.2811L355.873 66.3451L356.51 68.1244L346.29 76.5841L345.708 74.9573L347.994 73.0675ZM349.09 72.1778L354.29 67.906L347.561 67.9075L349.09 72.1778Z" fill="#83418D"/>
<path d="M357.807 89.5069C358.484 89.0624 358.974 88.4862 359.277 87.7784C359.591 87.0689 359.688 86.2803 359.569 85.4125C359.45 84.5446 359.139 83.7879 358.639 83.1421C358.152 82.5066 357.506 82.0382 356.701 81.7371C355.91 81.4462 355.027 81.3679 354.052 81.502C353.078 81.6361 352.249 81.9501 351.566 82.4438C350.884 82.9494 350.389 83.5748 350.079 84.3199C349.784 85.0753 349.695 85.8869 349.815 86.7547C349.982 87.9673 350.482 88.916 351.315 89.6008C352.148 90.2856 353.192 90.6083 354.446 90.569L353.764 85.6117L355.083 85.4301L356.004 92.1171L354.755 92.2889C353.72 92.3344 352.737 92.1427 351.805 91.7136C350.886 91.2829 350.116 90.6561 349.494 89.8332C348.883 89.0087 348.503 88.0496 348.353 86.9559C348.194 85.8028 348.317 84.7139 348.721 83.6892C349.137 82.6629 349.788 81.8042 350.674 81.1129C351.561 80.4336 352.612 80.0105 353.824 79.8436C355.037 79.6768 356.162 79.8005 357.2 80.2148C358.252 80.6394 359.111 81.2905 359.777 82.1679C360.454 83.0437 360.872 84.0581 361.031 85.2113C361.213 86.5308 361.046 87.7408 360.531 88.8413C360.018 89.9536 359.199 90.8234 358.074 91.4506L357.807 89.5069Z" fill="#83418D"/>
<path d="M360.55 100.313L356.363 100.077L356.106 104.642L354.758 104.566L355.015 100.001L350.702 99.7582L350.414 104.862L349.067 104.786L349.446 98.0469L361.99 98.753L361.611 105.492L360.263 105.416L360.55 100.313Z" fill="#83418D"/>
<path d="M347.616 120.032L346.307 124.224L345.036 123.827L346.833 118.071L358.809 121.81L358.321 123.373L347.616 120.032Z" fill="#83418D"/>
<path d="M354.133 134.839L342.686 129.703L343.356 128.209L354.803 133.344L354.133 134.839Z" fill="#83418D"/>
<path d="M343.584 152.82L333.251 145.865L334.165 144.506L341.871 149.692L336.477 141.071L337.12 140.115L347.162 141.862L339.442 136.666L340.356 135.307L350.69 142.262L349.705 143.725L338.59 141.799L344.559 151.371L343.584 152.82Z" fill="#83418D"/>
<path d="M337.198 160.236L328.135 151.56L329.267 150.377L338.33 159.052L337.198 160.236Z" fill="#83418D"/>
<path d="M325.733 170.48L324.9 169.44L327.57 167.302L320.559 158.549L321.838 157.525L328.848 166.278L331.532 164.129L332.364 165.169L325.733 170.48Z" fill="#83418D"/>
<path d="M308.579 169.676L313.389 167.066L312.944 164.133L314.463 163.309L316.425 176.437L314.763 177.338L304.844 168.528L306.363 167.704L308.579 169.676ZM309.626 170.623L314.641 175.111L313.613 168.46L309.626 170.623Z" fill="#83418D"/>
<path d="M297.273 184.697L296.852 183.433L300.096 182.351L296.548 171.713L298.101 171.195L301.65 181.833L304.911 180.745L305.333 182.008L297.273 184.697Z" fill="#83418D"/>
<path d="M289.395 186.57L286.992 174.256L288.6 173.942L291.003 186.256L289.395 186.57Z" fill="#83418D"/>
<path d="M275.318 175.535C276.481 175.498 277.551 175.735 278.528 176.244C279.505 176.766 280.29 177.504 280.884 178.458C281.467 179.424 281.777 180.519 281.816 181.742C281.854 182.966 281.612 184.072 281.091 185.061C280.558 186.062 279.82 186.847 278.878 187.417C277.935 187.999 276.883 188.308 275.719 188.344C274.544 188.381 273.468 188.139 272.491 187.617C271.514 187.107 270.735 186.375 270.153 185.421C269.571 184.467 269.26 183.372 269.222 182.137C269.183 180.901 269.424 179.789 269.946 178.8C270.467 177.812 271.199 177.026 272.141 176.444C273.084 175.875 274.143 175.571 275.318 175.535ZM275.363 176.956C274.487 176.983 273.708 177.212 273.025 177.641C272.33 178.071 271.796 178.67 271.424 179.438C271.04 180.207 270.864 181.089 270.895 182.084C270.926 183.092 271.158 183.961 271.589 184.692C272.008 185.435 272.572 186 273.281 186.386C273.989 186.772 274.787 186.951 275.675 186.923C276.562 186.895 277.347 186.667 278.03 186.237C278.713 185.807 279.247 185.208 279.631 184.44C280.003 183.684 280.174 182.802 280.142 181.795C280.111 180.799 279.886 179.93 279.466 179.187C279.035 178.444 278.465 177.879 277.757 177.493C277.036 177.108 276.238 176.928 275.363 176.956Z" fill="#83418D"/>
<path d="M254.378 173.779L255.99 174.07L260.693 185.074L262.473 175.244L264.085 175.536L261.846 187.899L260.234 187.607L255.528 176.621L253.752 186.433L252.14 186.142L254.378 173.779Z" fill="#83418D"/>
</svg>

