<svg width="377" height="198" viewBox="0 0 377 198" fill="none" xmlns="http://www.w3.org/2000/svg">
<g filter="url(#filter0_f_159_78)">
<path d="M286 99.9087H8M273 91.9087V86.4087L295.5 99.9087L273 113.409V107.99M353 100.409C353 140.725 320.317 173.409 280 173.409C239.683 173.409 207 140.725 207 100.409C207 60.0919 239.683 27.4087 280 27.4087C320.317 27.4087 353 60.0919 353 100.409ZM286.998 99.9087L263.748 113.332V86.4853L286.998 99.9087Z" stroke="#83418D" stroke-width="2"/>
</g>
<path d="M286.2 99.9087L264 87V113L286.2 99.9087Z" fill="#2D1F3D"/>
<path d="M273.5 91.5V87.5L294 99.9087L273.5 112.5V108.5L288.5 99.9087L273.5 91.5Z" fill="#2D1F3D" stroke="#2D1F3D" stroke-width="0.5"/>
<path d="M264.5 99.9087H286" stroke="#6B3877"/>
<path d="M286 99.9086H8M273 91.9086V86.4086L295.5 99.9086L273 113.409V107.99M353 100.409C353 140.725 320.317 173.409 280 173.409C239.683 173.409 207 140.725 207 100.409C207 60.0918 239.683 27.4086 280 27.4086C320.317 27.4086 353 60.0918 353 100.409ZM286.998 99.9086L263.748 113.332V86.4852L286.998 99.9086Z" stroke="#83418D" stroke-width="2"/>
<path d="M198.301 81.8474C198.467 81.4164 198.735 81.0503 199.106 80.749C199.479 80.436 199.906 80.2201 200.385 80.1014C200.867 79.9709 201.354 79.9582 201.847 80.0633C202.469 80.1958 202.999 80.4743 203.436 80.8988C203.861 81.3207 204.156 81.8681 204.319 82.5409C204.473 83.1995 204.463 83.9396 204.287 84.7611L203.312 89.3383L191.042 86.7233L191.98 82.3222C192.157 81.4889 192.449 80.8089 192.856 80.2821C193.251 79.7528 193.714 79.3914 194.246 79.1981C194.778 79.0047 195.338 78.9706 195.925 79.0956C196.652 79.2507 197.214 79.579 197.61 80.0806C197.997 80.5679 198.228 81.1569 198.301 81.8474ZM196.682 86.2506L197.256 83.5571C197.416 82.806 197.364 82.1875 197.099 81.7017C196.835 81.2159 196.391 80.9067 195.769 80.7741C195.147 80.6416 194.617 80.7431 194.177 81.0789C193.737 81.4146 193.435 81.9698 193.27 82.7444L192.703 85.4027L196.682 86.2506ZM202.937 84.6206C203.107 83.8225 203.052 83.1604 202.771 82.6344C202.491 82.1084 202.016 81.7741 201.347 81.6315C200.666 81.4865 200.082 81.6074 199.595 81.9943C199.096 82.3787 198.763 82.9641 198.595 83.7504L198.002 86.532L202.333 87.4549L202.937 84.6206Z" fill="#83418D"/>
<path d="M196.808 69.9863L200.697 71.5551L202.407 67.315L203.659 67.82L201.949 72.0601L205.956 73.676L207.868 68.9351L209.12 69.4401L206.595 75.7001L194.943 71.0004L197.468 64.7404L198.72 65.2454L196.808 69.9863Z" fill="#83418D"/>
<path d="M213.158 56.2015L210.24 60.831L212.063 63.1712L211.142 64.6331L203.007 54.1453L204.015 52.5463L216.977 55.3741L216.055 56.8361L213.158 56.2015ZM211.781 55.8873L205.212 54.4282L209.363 59.7249L211.781 55.8873Z" fill="#83418D"/>
<path d="M211.801 41.7413L217.575 47.1879C218.387 47.9537 219.175 48.3254 219.938 48.3031C220.71 48.2721 221.429 47.903 222.096 47.1959C222.754 46.4975 223.073 45.7667 223.05 45.0033C223.036 44.2312 222.623 43.4623 221.811 42.6966L216.037 37.25L217.161 36.0584L222.922 41.4927C223.682 42.209 224.179 42.967 224.415 43.7665C224.642 44.5578 224.635 45.3348 224.394 46.0973C224.161 46.8512 223.74 47.5511 223.131 48.197C222.522 48.843 221.843 49.3085 221.096 49.5935C220.357 49.8698 219.586 49.9178 218.783 49.7375C217.979 49.5403 217.198 49.0835 216.438 48.3672L210.677 42.9329L211.801 41.7413Z" fill="#83418D"/>
<path d="M228.771 26.5303L229.565 27.5996L226.819 29.6388L233.506 38.6412L232.191 39.6179L225.504 30.6156L222.744 32.6656L221.95 31.5963L228.771 26.5303Z" fill="#83418D"/>
<path d="M242.655 18.6066L242.533 27.4218L244.668 31.6468L243.206 32.3857L241.071 28.1607L233.884 23.0401L235.507 22.22L241.136 26.4941L241.033 19.4267L242.655 18.6066Z" fill="#83418D"/>
<path d="M274.155 10.4477L272.36 23.386L270.543 23.6499L266.206 14.0759L264.665 24.5037L262.868 24.7828L257.589 12.8537L259.317 12.6028L263.553 22.7371L265.017 11.7749L266.834 11.511L271.208 21.589L272.409 10.7012L274.155 10.4477Z" fill="#83418D"/>
<path d="M283.013 10.5958L282.499 23.1313L280.863 23.0643L281.376 10.5288L283.013 10.5958Z" fill="#83418D"/>
<path d="M298.22 12.3783L297.992 13.6908L294.623 13.1074L292.71 24.1571L291.096 23.8777L293.009 12.828L289.621 12.2416L289.848 10.9291L298.22 12.3783Z" fill="#83418D"/>
<path d="M314.58 17.4086L310.202 29.1658L308.667 28.5942L310.652 23.2638L304.664 21.0338L302.679 26.3642L301.144 25.7925L305.522 14.0353L307.057 14.607L305.135 19.7687L311.123 21.9987L313.045 16.837L314.58 17.4086Z" fill="#83418D"/>
<path d="M320.704 34.8148C319.724 34.1868 318.975 33.3865 318.458 32.4139C317.948 31.4313 317.717 30.3786 317.767 29.2559C317.833 28.1296 318.196 27.0511 318.856 26.0205C319.517 24.9899 320.342 24.2143 321.331 23.6937C322.336 23.1694 323.389 22.9389 324.489 23.0022C325.595 23.0553 326.638 23.3958 327.618 24.0238C328.608 24.6582 329.359 25.4668 329.869 26.4495C330.386 27.4221 330.615 28.4665 330.555 29.5827C330.496 30.6989 330.132 31.7774 329.466 32.8181C328.799 33.8588 327.971 34.6394 326.982 35.1601C325.992 35.6807 324.945 35.9144 323.839 35.8613C322.739 35.7981 321.694 35.4492 320.704 34.8148ZM321.471 33.6175C322.209 34.0901 322.981 34.3423 323.787 34.3743C324.603 34.4127 325.382 34.2205 326.123 33.7976C326.874 33.3811 327.519 32.7536 328.056 31.915C328.6 31.0662 328.901 30.2186 328.959 29.372C329.033 28.5219 328.887 27.7373 328.521 27.0182C328.155 26.2992 327.599 25.7002 326.851 25.2211C326.103 24.742 325.326 24.4865 324.52 24.4546C323.714 24.4226 322.935 24.6149 322.184 25.0313C321.449 25.4441 320.81 26.0749 320.266 26.9236C319.729 27.7622 319.423 28.6066 319.348 29.4568C319.284 30.3135 319.435 31.1013 319.801 31.8203C320.177 32.5458 320.734 33.1449 321.471 33.6175Z" fill="#83418D"/>
<path d="M340.135 33.5209L334.562 39.1736C333.779 39.9684 333.39 40.7475 333.395 41.5112C333.409 42.2833 333.762 43.0105 334.455 43.6929C335.138 44.3669 335.862 44.7012 336.625 44.6958C337.398 44.6988 338.175 44.3029 338.959 43.5082L344.532 37.8554L345.698 39.0054L340.138 44.6453C339.405 45.3888 338.636 45.8694 337.832 46.0873C337.036 46.2966 336.259 46.2724 335.502 46.0148C334.753 45.7655 334.063 45.3292 333.431 44.7057C332.798 44.0823 332.348 43.3939 332.08 42.6406C331.82 41.8958 331.789 41.1238 331.987 40.3248C332.202 39.5256 332.676 38.7543 333.409 38.0108L338.969 32.3709L340.135 33.5209Z" fill="#83418D"/>
<path d="M354.957 50.8002L353.871 51.5709L351.892 48.7815L342.746 55.2701L341.798 53.9341L350.944 47.4456L348.955 44.6415L350.041 43.8708L354.957 50.8002Z" fill="#83418D"/>
<path d="M355.994 75.0675L354.149 69.916L351.182 69.9079L350.6 68.2811L363.873 68.3451L364.51 70.1244L354.29 78.5841L353.708 76.9573L355.994 75.0675ZM357.09 74.1778L362.29 69.906L355.561 69.9075L357.09 74.1778Z" fill="#83418D"/>
<path d="M365.807 91.5069C366.484 91.0624 366.974 90.4862 367.277 89.7784C367.591 89.0689 367.688 88.2803 367.569 87.4125C367.45 86.5446 367.139 85.7879 366.639 85.1421C366.152 84.5066 365.506 84.0382 364.701 83.7371C363.91 83.4462 363.027 83.3679 362.052 83.502C361.078 83.6361 360.249 83.9501 359.566 84.4438C358.884 84.9494 358.389 85.5748 358.079 86.3199C357.784 87.0753 357.695 87.8869 357.815 88.7547C357.982 89.9673 358.482 90.916 359.315 91.6008C360.148 92.2856 361.192 92.6083 362.446 92.569L361.764 87.6117L363.083 87.4301L364.004 94.1171L362.755 94.2889C361.72 94.3344 360.737 94.1427 359.805 93.7136C358.886 93.2829 358.116 92.6561 357.494 91.8332C356.883 91.0087 356.503 90.0496 356.353 88.9559C356.194 87.8028 356.317 86.7139 356.721 85.6892C357.137 84.6629 357.788 83.8042 358.674 83.1129C359.561 82.4336 360.612 82.0105 361.824 81.8436C363.037 81.6768 364.162 81.8005 365.2 82.2148C366.252 82.6394 367.111 83.2905 367.777 84.1679C368.454 85.0437 368.872 86.0581 369.031 87.2113C369.213 88.5308 369.046 89.7408 368.531 90.8413C368.018 91.9536 367.199 92.8234 366.074 93.4506L365.807 91.5069Z" fill="#83418D"/>
<path d="M368.55 102.313L364.363 102.077L364.106 106.642L362.758 106.566L363.015 102.001L358.702 101.758L358.414 106.862L357.067 106.786L357.446 100.047L369.99 100.753L369.611 107.492L368.263 107.416L368.55 102.313Z" fill="#83418D"/>
<path d="M355.616 122.032L354.307 126.224L353.036 125.827L354.833 120.071L366.809 123.81L366.321 125.373L355.616 122.032Z" fill="#83418D"/>
<path d="M362.133 136.839L350.686 131.703L351.356 130.209L362.803 135.344L362.133 136.839Z" fill="#83418D"/>
<path d="M351.584 154.82L341.251 147.865L342.165 146.506L349.871 151.692L344.477 143.071L345.12 142.115L355.162 143.862L347.442 138.666L348.356 137.307L358.69 144.262L357.705 145.725L346.59 143.799L352.559 153.371L351.584 154.82Z" fill="#83418D"/>
<path d="M345.198 162.236L336.135 153.56L337.267 152.377L346.33 161.052L345.198 162.236Z" fill="#83418D"/>
<path d="M333.733 172.48L332.9 171.44L335.57 169.302L328.559 160.549L329.838 159.525L336.848 168.278L339.532 166.129L340.364 167.169L333.733 172.48Z" fill="#83418D"/>
<path d="M316.579 171.676L321.389 169.066L320.944 166.133L322.463 165.309L324.425 178.437L322.763 179.338L312.844 170.528L314.363 169.704L316.579 171.676ZM317.626 172.623L322.641 177.111L321.613 170.46L317.626 172.623Z" fill="#83418D"/>
<path d="M305.273 186.697L304.852 185.433L308.096 184.351L304.548 173.713L306.101 173.195L309.65 183.833L312.911 182.745L313.333 184.008L305.273 186.697Z" fill="#83418D"/>
<path d="M297.395 188.57L294.992 176.256L296.6 175.942L299.003 188.256L297.395 188.57Z" fill="#83418D"/>
<path d="M283.318 177.535C284.481 177.498 285.551 177.735 286.528 178.244C287.505 178.766 288.29 179.504 288.884 180.458C289.467 181.424 289.777 182.519 289.816 183.742C289.854 184.966 289.612 186.072 289.091 187.061C288.558 188.062 287.82 188.847 286.878 189.417C285.935 189.999 284.883 190.308 283.719 190.344C282.544 190.381 281.468 190.139 280.491 189.617C279.514 189.107 278.735 188.375 278.153 187.421C277.571 186.467 277.26 185.372 277.222 184.137C277.183 182.901 277.424 181.789 277.946 180.8C278.467 179.812 279.199 179.026 280.141 178.444C281.084 177.875 282.143 177.571 283.318 177.535ZM283.363 178.956C282.487 178.983 281.708 179.212 281.025 179.641C280.33 180.071 279.796 180.67 279.424 181.438C279.04 182.207 278.864 183.089 278.895 184.084C278.926 185.092 279.158 185.961 279.589 186.692C280.008 187.435 280.572 188 281.281 188.386C281.989 188.772 282.787 188.951 283.675 188.923C284.562 188.895 285.347 188.667 286.03 188.237C286.713 187.807 287.247 187.208 287.631 186.44C288.003 185.684 288.174 184.802 288.142 183.795C288.111 182.799 287.886 181.93 287.466 181.187C287.035 180.444 286.465 179.879 285.757 179.493C285.036 179.108 284.238 178.928 283.363 178.956Z" fill="#83418D"/>
<path d="M262.378 175.779L263.99 176.07L268.693 187.074L270.473 177.244L272.085 177.536L269.846 189.899L268.234 189.607L263.528 178.621L261.752 188.433L260.14 188.142L262.378 175.779Z" fill="#83418D"/>
<defs>
<filter id="filter0_f_159_78" x="0" y="18.4087" width="362" height="164" filterUnits="userSpaceOnUse" color-interpolation-filters="sRGB">
<feFlood flood-opacity="0" result="BackgroundImageFix"/>
<feBlend mode="normal" in="SourceGraphic" in2="BackgroundImageFix" result="shape"/>
<feGaussianBlur stdDeviation="4" result="effect1_foregroundBlur_159_78"/>
</filter>
</defs>
</svg>